<svg width="504" height="145" viewBox="0 0 504 145" fill="none" xmlns="http://www.w3.org/2000/svg">
<path d="M8.53333 0.352104L0 0.752106L0.8 7.01878C1.2 10.4854 3.06667 32.7521 4.93333 56.6188C6.8 80.4854 8.66667 100.752 8.93333 101.552C9.73333 103.952 28.8 103.952 30.6667 101.552C31.7333 100.219 62.8 6.3521 63.3333 2.61877C63.4667 1.81877 59.0667 1.01878 53.3333 0.618774C47.7333 0.218773 43.3333 0.0854416 43.6 0.352104C44.2667 1.01878 28.2667 62.4854 27.2 63.5521C26.6667 64.0854 25.4667 63.9521 24.4 63.4188C22.9333 62.4854 22.4 55.5521 21.8667 31.5521C21.0667 -3.24789 22.4 -0.31456 8.53333 0.352104Z" fill="#DFDADA"/>
<path d="M68.2667 0.618782C67.2 1.28545 58.8 24.7521 49.6 52.8854L32.8 103.952L20.5333 104.352C11.4667 104.619 8.26667 105.152 8.66667 106.352C8.93333 107.419 13.2 107.952 22.4 107.952H35.6L53.2 54.6188C62.9333 25.2854 70.8 0.885445 70.5333 0.352112C70.4 -0.181221 69.3333 -0.0478897 68.2667 0.618782Z" fill="#EBBA60"/>
<path d="M90.9333 0.352089L84.9333 0.75209L68.5333 51.0188C59.4667 78.6188 52.1333 101.819 52.2667 102.352C52.2667 102.885 56.2667 103.285 61.3333 103.019L70.2667 102.619L72.6667 94.8854L75.0667 87.2854H85.6C97.3333 87.2854 97.6 87.5521 97.6 97.4188V103.285H106.933C116.267 103.285 116.267 103.285 116.267 99.5521C116.267 97.5521 114.4 75.2854 112.267 49.9521C110.133 24.6188 108.267 3.28542 108.267 2.48543C108.267 0.75209 100.133 -0.314575 90.9333 0.352089ZM95.6 53.2854V71.9521L88.5333 72.3521C83.3333 72.6188 81.3333 72.2188 80.8 70.7521C80.1333 69.1521 88.5333 38.0854 90.5333 34.8854C90.9333 34.3521 92.1333 33.9521 93.3333 34.2188C95.3333 34.6188 95.6 37.0188 95.6 53.2854Z" fill="#DFDADA"/>
<path d="M92.1333 37.2854C91.2 38.6188 82.9333 67.2855 82.9333 69.0188C82.9333 69.5521 83.7333 69.9521 84.8 69.9521C87.0667 69.9521 93.8667 46.2188 93.3333 40.2188C93.0667 37.9521 92.5333 36.4854 92.1333 37.2854Z" fill="#EBBA60"/>
<path d="M146.667 0.352089C143.733 0.75209 142.933 1.55209 142.267 5.01876C140.933 13.2854 130.933 97.2854 130.933 100.219V103.285H156.133C170.133 103.285 181.733 102.885 182 102.219C182.4 101.685 183.067 97.8188 183.6 93.5521L184.533 85.9521H169.067C157.333 85.9521 153.333 85.5521 152.8 84.2188C152.4 83.1521 154.267 65.1521 156.933 44.0854C159.467 23.0188 161.6 4.75209 161.6 3.41876C161.6 1.41876 160.4 0.75209 156 0.485428C152.8 0.218758 148.667 0.0854263 146.667 0.352089Z" fill="#DFDADA"/>
<path d="M224.133 1.81877C207.333 7.81877 204.267 14.2188 199.6 52.3521C196.267 79.1521 196.267 81.1521 198.267 87.9521C201.2 98.2188 206.8 102.352 218.933 103.019C229.333 103.685 235.2 102.085 242.667 96.6188C251.067 90.6188 253.333 84.0854 257.067 55.8188C258.8 42.0854 260.267 27.6854 260.267 23.9521C260.267 14.8854 255.867 6.3521 249.333 3.01877C242.8 -0.447899 231.733 -0.981232 224.133 1.81877ZM236.8 17.4188C241.6 19.2854 241.733 22.4854 238.267 50.6188C236.4 66.0854 234 79.8188 232.933 82.0854C228.8 89.8188 217.333 88.2188 216.533 79.5521C216.133 75.6854 220.667 34.2188 222.4 25.8188C223.867 18.6188 230.267 14.8854 236.8 17.4188Z" fill="#DFDADA"/>
<path d="M229.867 19.4188C225.6 21.0188 224.667 24.2188 221.6 48.7521C218.133 77.0188 218.133 84.6188 221.733 84.6188C222.267 84.6188 222.533 83.8188 222.133 82.8854C221.867 81.9521 222.933 68.8854 224.8 54.0854C228.267 25.8188 229.333 22.6188 235.467 21.6854C238.267 21.2854 238.267 21.1521 235.6 19.6854C234 18.8854 231.733 18.7521 229.867 19.4188Z" fill="#EBBA60"/>
<path d="M280.533 0.752121C278.667 1.41879 277.333 9.01878 272.133 51.4188C268.667 78.8854 266.4 101.819 266.933 102.352C267.467 102.885 271.733 103.285 276.4 103.019L284.933 102.619L286.4 91.9521C287.2 86.0854 288.4 77.2854 288.933 72.2188C289.867 62.6188 292 59.1521 296.267 60.2188C297.733 60.6188 298.933 61.0188 298.933 61.1521C298.933 61.1521 300.133 70.6188 301.6 81.9521C303.067 93.2854 304.267 102.752 304.267 103.019C304.267 103.285 308.667 103.285 314 103.019C323.333 102.619 323.6 102.485 323.2 99.2854C322.933 97.4188 321.467 87.4188 319.733 76.8854L316.667 57.8188L322.4 51.8188C331.733 42.2188 335.067 24.8855 329.733 13.2855C326.667 6.48545 323.6 3.95212 316.4 1.95212C310.133 0.352119 284.267 -0.581215 280.533 0.752121ZM310.133 20.6188C313.067 23.5521 313.467 31.8188 310.933 37.9521C308.267 44.4855 297.333 48.4855 293.867 44.2188C292.133 42.2188 294.533 20.8855 296.667 18.2188C298.533 15.8188 306.8 17.2855 310.133 20.6188Z" fill="#DFDADA"/>
<path d="M298.267 20.4854C297.733 21.5521 295.2 38.2188 294.933 42.2188C294.933 42.8854 295.733 43.2854 296.8 43.2854C298.533 43.2854 300.267 35.4188 300.267 27.1521C300.267 23.6854 300.667 23.2854 304.667 23.2854C308.667 23.1521 308.8 23.1521 306.4 21.2854C303.467 19.0188 299.467 18.6188 298.267 20.4854Z" fill="#EBBA60"/>
<path d="M356.667 0.352089C352.8 0.618759 349.6 1.28542 349.6 2.08543C349.6 2.75209 346.933 25.2854 343.6 52.0854C340.267 78.8854 337.6 101.285 337.6 102.085C337.6 102.752 341.733 103.285 346.933 103.285C355.467 103.285 356.267 103.019 356.8 100.219C357.6 96.7521 363.067 55.5521 363.067 52.6188C363.2 51.5521 364.267 41.0188 365.733 29.2854C367.2 17.5521 368.4 6.48543 368.667 4.75209C369.067 0.885422 366.133 -0.181244 356.667 0.352089Z" fill="#DFDADA"/>
<path d="M386 0.352089C382.533 0.75209 381.6 1.41876 381.6 3.68542C381.6 5.28542 381.2 8.88543 380.8 11.5521L379.867 16.6188H392.667C406.667 16.6188 409.6 17.2854 409.6 20.2188C409.6 21.4188 405.6 28.6188 400.8 36.4854C390.4 53.4188 391.733 51.2854 380.8 69.1521C372.533 82.8854 369.867 90.6188 369.6 101.552C369.6 102.885 375.467 103.285 394.8 103.285C408.8 103.285 420.4 102.885 420.667 102.219C421.067 101.685 421.733 97.8188 422.267 93.5521L423.2 85.9521H408.533C400 85.9521 393.467 85.4188 392.933 84.6188C392.4 83.8188 400.4 69.5521 410.667 52.8854C433.2 16.0854 431.733 19.0188 432.8 8.88543L433.733 0.618759H426C421.733 0.485428 412 0.352089 404.267 0.218758C396.533 0.0854263 388.267 0.0854263 386 0.352089Z" fill="#DFDADA"/>
<path d="M458.667 0.352089C450.533 0.618759 446.933 1.28542 446.933 2.35209C446.933 3.28542 446.267 7.81876 445.6 12.6188C444.133 22.7521 444.133 23.4188 438.933 65.9521C436.8 83.9521 434.933 99.6854 434.933 100.885C434.933 103.152 437.067 103.285 460.267 103.285C479.467 103.285 485.867 102.885 486.267 101.552C486.533 100.752 487.067 96.8854 487.467 93.0188L488.4 86.0854L472.667 85.6854L456.933 85.2854L457.333 75.9521C458.133 61.6854 459.2 60.0854 469.2 59.5521C478.267 59.1521 478.4 58.8854 479.2 49.2854L479.6 43.9521L470.933 43.2854L462.267 42.6188L462.667 32.6188C463.333 17.1521 464 16.6188 481.6 16.6188C489.6 16.6188 496.4 16.2188 496.667 15.5521C497.067 15.0188 497.467 11.4188 497.733 7.55209L498.267 0.485428L484.267 0.218758C476.533 0.0854263 465.067 0.0854263 458.667 0.352089Z" fill="#DFDADA"/>
<path d="M24.4 26.8854C24.5333 41.4188 24.9333 55.0188 25.4667 57.2854L26.4 61.2854L27.3333 55.9521C29.2 45.2854 27.6 0.618763 25.3333 0.618763C24.8 0.618763 24.4 12.4854 24.4 26.8854Z" fill="#EBBA60"/>
<path d="M110.933 1.55212C110.933 2.21878 112.8 23.9521 114.933 49.9521C117.067 75.9521 118.933 98.8855 118.933 100.885C118.933 104.485 118.933 104.485 108 104.885C93.7333 105.419 93.6 107.819 107.6 108.352C123.333 108.885 124.133 108.619 122.8 101.685C122.133 98.4854 120.133 76.7521 118.267 53.2854C114.4 5.55211 113.867 0.618782 112.133 0.618782C111.467 0.618782 110.933 1.01878 110.933 1.55212Z" fill="#EBBA60"/>
<path d="M164.267 1.9521C164.267 2.7521 162.133 20.4854 159.6 41.4188C154.267 84.7521 154.4 83.2854 156.667 83.2854C157.867 83.2854 159.6 72.6188 162.8 45.5521C165.2 24.8854 167.6 6.35209 167.867 4.21876C168.4 1.55209 168.133 0.618759 166.4 0.618759C165.2 0.618759 164.267 1.28543 164.267 1.9521Z" fill="#EBBA60"/>
<path d="M365.733 49.0188C362.533 75.5521 359.6 98.8854 359.333 100.885C358.667 104.485 358.4 104.485 347.733 104.885C332.8 105.419 333.867 107.819 349.333 108.352C357.6 108.619 361.6 108.219 361.6 107.285C361.6 106.485 362.133 106.085 362.8 106.485C363.467 107.019 363.733 106.219 363.467 105.019C363.067 103.685 365.6 80.4854 368.933 53.5521C372.267 26.4854 374.933 3.55209 374.933 2.48542C374.933 1.41875 374.133 0.618752 373.333 0.618752C372.133 0.618752 370 14.3521 365.733 49.0188Z" fill="#EBBA60"/>
<path d="M435.733 4.88543C435.333 7.28542 434.8 11.5521 434.4 14.3521C433.867 18.6188 415.6 50.3521 396.533 80.2188C394.8 83.0188 394.8 83.2854 397.2 83.2854C399.2 83.2854 404.4 75.9521 418.267 53.1521C436.4 23.5521 438 19.8188 439.2 6.75209C439.733 0.218758 436.667 -1.51457 435.733 4.88543Z" fill="#EBBA60"/>
<path d="M501.067 3.5521C500.667 5.28544 500 9.41877 499.6 12.8854L498.8 19.2854H483.867C475.6 19.2854 468.267 19.8188 467.467 20.3521C466.533 20.8854 465.467 25.6854 464.933 30.8854C464.133 39.2854 464.267 40.6188 466.133 40.6188C467.733 40.6188 468.267 39.2854 468.267 34.7521C468.267 31.4188 468.8 28.4854 469.6 27.9521C470.267 27.5521 470.533 26.3521 470 25.2854C469.467 23.5521 471.733 23.2854 485.333 23.2854C497.733 23.2854 501.467 22.8854 502 21.4188C503.733 17.0188 504.533 0.618771 503.067 0.618771C502.267 0.618771 501.333 1.95211 501.067 3.5521Z" fill="#EBBA60"/>
<path d="M260.267 10.6188C263.733 17.4188 263.6 22.3521 259.6 54.2188C257.2 72.6188 255.333 82.6188 253.467 86.6188C249.867 94.0854 240.667 102.619 234.133 104.485C227.333 106.352 216.4 106.352 211.067 104.485C205.2 102.485 204.4 103.952 209.733 106.619C216.4 110.085 233.2 109.685 240.933 105.952C248.4 102.352 255.6 94.0854 258.133 86.0854C259.333 82.7521 261.733 67.8188 263.6 53.0188C267.333 23.1521 266.933 15.6854 260.8 8.88543L257.6 5.28543L260.267 10.6188Z" fill="#EBBA60"/>
<path d="M333.2 14.2188C337.467 26.3521 332.8 45.2854 323.333 54.3521L319.467 57.9521L322.4 77.0188C324.133 87.4188 325.867 97.9521 326.267 100.219L327.067 104.619H315.6C306.4 104.619 304.267 105.019 304.267 106.619C304.267 108.219 306.533 108.619 316.933 108.619C328.667 108.619 329.6 108.352 329.6 105.952C329.6 104.619 328.133 94.0854 326.267 82.6188L322.933 61.8188L328.133 55.6854C334.533 48.4854 338.133 38.6188 338.133 28.6188C338 20.4854 335.733 12.3521 333.067 9.95211C331.6 8.88544 331.6 9.68545 333.2 14.2188Z" fill="#EBBA60"/>
<path d="M379.867 20.0854C377.6 22.3521 381.333 23.2854 392.267 23.2854C404.533 23.2854 408.8 22.4854 407.467 20.4854C406.667 19.1521 381.2 18.7521 379.867 20.0854Z" fill="#EBBA60"/>
<path d="M482.267 44.8854C482 45.8188 481.467 50.0854 480.933 54.2188L480.133 61.9521H471.733C466.533 61.9521 462.8 62.6188 461.867 63.5521C461.2 64.4854 460.133 69.2854 459.6 74.2188C458.8 81.9521 459.067 83.2854 460.8 83.2854C462.267 83.2854 462.933 82.0854 462.933 79.5521C462.933 77.5521 463.333 73.6854 463.733 70.8854L464.667 65.9521H473.733C484 65.9521 483.6 66.4854 485.067 52.2188C485.6 45.8188 485.467 43.2854 484.4 43.2854C483.6 43.2854 482.667 44.0854 482.267 44.8854Z" fill="#EBBA60"/>
<path d="M292.8 63.8188C292.4 64.7521 291.067 74.2188 289.867 84.7521L287.467 103.952L276.533 104.352C268 104.619 265.6 105.152 265.6 106.619C265.6 108.219 268 108.619 277.467 108.619C284.133 108.619 289.733 108.085 290.133 107.419C290.533 106.885 291.733 98.6188 292.933 89.1521C294 79.6854 295.333 69.6854 295.733 66.8854C296.533 62.0854 294.4 59.6854 292.8 63.8188Z" fill="#EBBA60"/>
<path d="M186.267 92.2188C184.533 105.952 187.733 104.485 157.6 104.885C140.933 105.152 130.933 105.819 130.933 106.619C130.933 107.419 141.2 107.952 159.2 107.952H187.6L188.4 102.619C190.133 92.6188 190.267 86.8855 188.667 86.3521C187.733 85.9521 186.8 88.2188 186.267 92.2188Z" fill="#EBBA60"/>
<path d="M424.933 93.5521C424.4 97.8188 423.867 102.085 423.6 102.885C423.2 104.219 416.533 104.619 396.267 104.619C373.333 104.619 369.6 104.885 369.6 106.619C369.6 108.352 373.333 108.619 397.867 108.352L426.133 107.952L427.067 103.285C428.933 94.6188 429.067 86.8855 427.333 86.3521C426.4 85.9521 425.467 88.4855 424.933 93.5521Z" fill="#EBBA60"/>
<path d="M490.4 90.2188C490 92.6188 489.333 96.8854 488.933 99.5521L488.133 104.619L461.6 104.885C445.2 105.152 434.8 105.819 434.533 106.619C434.267 108.219 489.6 109.152 491.067 107.685C492.8 105.819 494.133 85.9521 492.533 85.9521C491.733 85.9521 490.8 87.9521 490.4 90.2188Z" fill="#EBBA60"/>
<path d="M74.4 97.2854L72.1333 104.485L62 104.885C55.2 105.152 51.6 105.819 51.2 107.019C50.8 108.352 53.4667 108.619 63.0667 108.352L75.4667 107.952L77.7333 100.619L79.8667 93.2854L87.4667 92.8854C97.6 92.3521 95.7333 89.9521 85.0667 89.9521H76.8L74.4 97.2854Z" fill="#EBBA60"/>
<path d="M10.6667 124.752C6.80001 126.885 7.73334 131.285 12.2667 133.019C17.4667 135.019 16.6667 137.419 10.9333 136.885C7.20001 136.619 6.80001 136.885 8.26667 138.619C10.8 141.552 17.2 141.152 18.9333 137.819C20.8 134.485 19.0667 131.952 14.2667 130.752C8.53334 129.285 10.2667 126.619 16.6667 127.152C19.4667 127.552 19.7333 125.152 16.8 124.085C14 123.019 13.3333 123.152 10.6667 124.752Z" fill="#DFDADA"/>
<path d="M22.9333 124.619C22.9333 125.285 23.6 125.952 24.2667 125.952C25.0667 125.952 25.6 125.285 25.6 124.619C25.6 123.819 25.0667 123.285 24.2667 123.285C23.6 123.285 22.9333 123.819 22.9333 124.619Z" fill="#DFDADA"/>
<path d="M69.6 132.085C69.6 138.485 70 140.752 71.3333 140.352C72.2667 139.952 73.0667 136.619 73.3333 131.552C73.6 124.752 73.3333 123.285 71.6 123.285C70 123.285 69.6 125.019 69.6 132.085Z" fill="#DFDADA"/>
<path d="M76.2667 124.619C76.2667 125.285 77.2 125.952 78.2667 125.952C79.3333 125.952 80.2667 125.285 80.2667 124.619C80.2667 123.819 79.3333 123.285 78.2667 123.285C77.2 123.285 76.2667 123.819 76.2667 124.619Z" fill="#DFDADA"/>
<path d="M83.7333 126.619C82.5333 128.485 82.1333 129.952 82.9333 129.952C83.6 129.952 84.2667 132.352 84.2667 135.285C84.2667 138.219 84.9333 140.619 85.6 140.619C86.4 140.619 86.9333 138.219 86.9333 135.285C86.9333 131.419 87.4667 129.952 88.9333 129.952C91.7333 129.952 91.4667 127.552 88.6667 126.885C86.4 126.352 86.4 126.219 88.6667 126.085C91.7333 125.952 91.6 123.285 88.4 123.285C87.0667 123.285 84.9333 124.752 83.7333 126.619Z" fill="#DFDADA"/>
<path d="M93.6 124.619C93.6 125.285 94.5333 125.952 95.6 125.952C96.6667 125.952 97.6 125.285 97.6 124.619C97.6 123.819 96.6667 123.285 95.6 123.285C94.5333 123.285 93.6 123.819 93.6 124.619Z" fill="#DFDADA"/>
<path d="M153.6 126.085C153.6 127.552 152.933 128.352 152.267 127.952C150.133 126.619 145.733 128.485 144.133 131.419C141.867 135.819 145.733 140.619 151.6 140.352L156.267 140.219V131.685C156.267 127.019 155.733 123.285 154.933 123.285C154.267 123.285 153.6 124.485 153.6 126.085ZM153.6 134.619C153.6 136.619 150 138.352 148.133 137.152C146.4 136.085 146.667 131.552 148.667 130.885C150.667 130.219 153.6 132.352 153.6 134.619Z" fill="#DFDADA"/>
<path d="M190.933 125.952C190.933 127.685 190.267 128.219 189.067 127.819C186.4 126.752 182 129.419 181.2 132.485C180.133 136.885 183.733 140.619 188.933 140.352L193.6 140.219V131.685C193.6 127.019 193.067 123.285 192.267 123.285C191.6 123.285 190.933 124.485 190.933 125.952ZM190.933 134.619C190.933 136.619 187.333 138.352 185.467 137.152C183.733 136.085 184 131.552 186 130.885C188 130.219 190.933 132.352 190.933 134.619Z" fill="#DFDADA"/>
<path d="M220.267 125.952C220.267 127.685 219.6 128.352 218.267 127.685C215.467 126.619 210.933 131.019 210.933 134.752C210.933 138.485 214.267 140.485 220 140.352L224.267 140.219V131.685C224.267 125.152 223.867 123.285 222.267 123.285C221.2 123.285 220.267 124.485 220.267 125.952ZM220 133.152C220.8 137.019 218 138.885 215.333 136.352C213.467 134.485 213.467 133.685 214.933 131.952C217.067 129.419 219.467 129.952 220 133.152Z" fill="#DFDADA"/>
<path d="M357.6 126.085C357.6 128.219 357.067 128.619 354.8 127.952C348.933 126.085 343.867 136.219 349.333 139.152C350.667 139.819 353.733 140.352 356 140.352L360.267 140.219V131.685C360.267 127.019 359.733 123.285 358.933 123.285C358.267 123.285 357.6 124.485 357.6 126.085ZM356 133.152C356.8 137.019 354 138.885 351.333 136.352C349.467 134.485 349.467 133.685 350.933 131.952C353.067 129.419 355.467 129.952 356 133.152Z" fill="#DFDADA"/>
<path d="M412.267 131.952C412.267 136.885 412.8 140.619 413.6 140.619C414.4 140.619 414.933 136.885 414.933 131.952C414.933 127.019 414.4 123.285 413.6 123.285C412.8 123.285 412.267 127.019 412.267 131.952Z" fill="#DFDADA"/>
<path d="M449.6 125.019C449.6 126.885 456.533 127.019 457.2 125.152C457.467 124.485 455.733 123.819 453.6 123.685C451.2 123.552 449.6 124.085 449.6 125.019Z" fill="#DFDADA"/>
<path d="M22.9333 133.952C22.9333 137.552 23.6 140.619 24.2667 140.619C25.0667 140.619 25.6 137.552 25.6 133.952C25.6 130.219 25.0667 127.285 24.2667 127.285C23.6 127.285 22.9333 130.219 22.9333 133.952Z" fill="#DFDADA"/>
<path d="M29.6 134.085C29.6 137.685 30.2667 140.619 30.9333 140.619C31.7333 140.619 32.2667 138.885 32.2667 136.885C32.2667 134.885 32.9333 132.485 33.8667 131.552C36.1333 129.285 38.9333 132.085 38.9333 136.752C38.9333 138.885 39.6 140.619 40.2667 140.619C41.0667 140.619 41.6 138.619 41.6 136.085C41.6 133.419 42.4 131.285 43.4667 130.885C46.1333 129.819 46.9333 131.152 46.9333 136.219C46.9333 139.285 47.4667 140.619 48.6667 140.219C50.2667 139.685 50.6667 130.619 49.0667 129.019C48.6667 128.485 44 128.085 38.9333 127.952L29.6 127.685V134.085Z" fill="#DFDADA"/>
<path d="M53.6 136.085C53.6 142.752 54 144.619 55.6 144.619C56.6667 144.619 57.6 143.419 57.6 142.085C57.6 140.219 58.2667 139.685 60.1333 140.219C65.6 141.552 69.6 131.419 64.6667 128.885C63.3333 128.219 60.2667 127.552 58 127.552L53.6 127.419V136.085ZM64.2667 134.619C64.2667 136.619 60.6667 138.352 58.8 137.152C57.0667 136.085 57.3333 131.552 59.3333 130.885C61.3333 130.219 64.2667 132.352 64.2667 134.619Z" fill="#DFDADA"/>
<path d="M77.2 128.219C76.6667 128.619 76.2667 131.685 76.2667 134.885C76.2667 143.019 79.4667 141.819 80 133.552C80.4 127.819 79.3333 125.952 77.2 128.219Z" fill="#DFDADA"/>
<path d="M94.5333 128.219C94 128.619 93.6 131.685 93.6 134.885C93.6 143.019 96.8 141.819 97.3333 133.552C97.7333 127.819 96.6667 125.952 94.5333 128.219Z" fill="#DFDADA"/>
<path d="M102.4 129.019C98.6667 131.685 100 138.219 104.667 139.819C107.6 140.885 108.8 140.619 110.667 138.885C112.8 136.619 112.667 136.485 108.267 136.885C104.667 137.152 103.6 136.752 103.2 134.752C102.533 131.819 105.333 129.685 108.667 130.752C111.467 131.685 111.733 129.152 108.8 128.085C105.867 126.885 105.067 127.019 102.4 129.019Z" fill="#DFDADA"/>
<path d="M115.067 128.485C112.8 129.952 115.2 131.552 118 130.485C119.067 130.085 120.4 130.352 120.933 131.152C121.467 132.085 120.4 132.619 118.4 132.619C116.267 132.619 114.8 133.552 114.267 135.419C113.2 138.752 115.333 140.619 120.667 140.619C124 140.619 124.267 140.219 124.267 135.552C124.267 128.352 120.267 125.285 115.067 128.485ZM120.533 136.885C119.333 138.085 118.533 138.085 117.333 136.885C116.133 135.685 116.4 135.285 118.933 135.285C121.467 135.285 121.733 135.685 120.533 136.885Z" fill="#DFDADA"/>
<path d="M128.267 134.219C128.267 141.419 130.533 143.019 131.2 136.219C131.467 133.019 132.267 131.819 134.667 131.552C137.2 131.152 137.6 131.685 137.6 135.819C137.6 138.485 138.267 140.619 138.933 140.619C140.933 140.619 140.533 130.485 138.533 128.885C137.6 128.085 134.933 127.552 132.533 127.552C128.267 127.685 128.267 127.819 128.267 134.219Z" fill="#DFDADA"/>
<path d="M161.6 129.952C158.267 133.285 158.267 134.219 161.333 137.952C164.667 142.085 170.533 140.752 171.733 135.685C172.4 133.019 172 131.552 169.6 129.685C165.867 126.619 164.933 126.619 161.6 129.952ZM168 136.085C165.467 138.619 162.933 137.552 162.933 133.952C162.933 130.752 165.733 129.819 168.267 132.085C169.867 133.685 169.867 134.219 168 136.085Z" fill="#DFDADA"/>
<path d="M198.533 128.219C196.667 129.952 197.733 131.552 200.267 130.885C201.733 130.485 203.333 130.752 203.733 131.419C204.133 132.085 203.2 132.619 201.733 132.619C200.267 132.619 198.4 133.819 197.6 135.285C196 138.352 198.667 140.352 204.667 140.352C208 140.352 208.267 139.819 208.267 135.152C208.267 131.419 207.6 129.685 205.733 128.619C202.667 127.019 199.733 126.885 198.533 128.219ZM204.933 136.619C204.533 137.285 203.2 137.952 202.133 137.952C201.067 137.952 200.267 137.285 200.267 136.619C200.267 135.819 201.467 135.285 203.067 135.285C204.533 135.285 205.333 135.819 204.933 136.619Z" fill="#DFDADA"/>
<path d="M229.067 129.819C225.733 133.552 226.8 138.352 231.467 139.952C234.667 141.019 235.6 140.752 237.733 138.085C240.933 134.219 240.933 133.285 237.6 129.952C234.267 126.619 232 126.619 229.067 129.819ZM236 133.685C236.533 137.152 232.533 139.285 230.933 136.485C229.467 134.352 231.867 129.552 234 130.352C234.933 130.619 235.733 132.085 236 133.685Z" fill="#DFDADA"/>
<path d="M243.2 128.885C240.667 131.419 241.333 133.819 244.933 134.752C246.8 135.152 248.267 136.219 248.267 136.885C248.267 137.685 246.8 137.819 244.8 137.419C242.267 136.752 241.467 137.019 241.867 138.219C242.8 140.752 248.933 141.019 250.933 138.752C253.067 136.085 250.667 132.619 246.667 132.619C245.2 132.619 244.533 131.952 244.933 131.285C245.467 130.485 247.067 130.219 248.533 130.752C250.533 131.285 251.067 131.019 250.667 129.819C249.867 127.285 245.333 126.752 243.2 128.885Z" fill="#DFDADA"/>
<path d="M266.933 129.285C265.6 130.885 265.6 131.685 266.933 133.285C267.867 134.352 269.467 135.285 270.4 135.285C271.467 135.285 272.267 135.952 272.267 136.752C272.267 137.685 270.933 137.952 268.933 137.419C264.933 136.352 264.4 138.752 268.267 139.952C272.133 141.152 276.267 139.419 276.267 136.619C276.267 134.885 275.067 133.685 272.933 133.152C271.067 132.752 269.6 131.685 269.6 131.019C269.6 130.219 270.533 130.085 271.733 130.485C274.667 131.552 277.067 129.952 274.8 128.485C272 126.752 268.8 127.019 266.933 129.285Z" fill="#DFDADA"/>
<path d="M280.533 129.419C278.933 130.485 277.6 132.485 277.6 133.819C277.6 136.619 281.6 140.619 284.533 140.619C287.067 140.619 290.933 136.352 290.933 133.552C290.933 131.685 286.267 127.285 284.267 127.285C283.867 127.285 282.133 128.219 280.533 129.419ZM286.8 132.485C287.867 134.352 287.733 135.419 286.267 136.619C284 138.485 281.6 137.285 281.6 134.085C281.6 129.552 284.8 128.485 286.8 132.485Z" fill="#DFDADA"/>
<path d="M293.6 134.219C293.6 137.685 294.267 140.619 294.933 140.619C295.733 140.619 296.267 138.885 296.267 136.885C296.267 134.885 296.933 132.485 297.867 131.552C300.133 129.285 302.933 132.085 302.933 136.752C302.933 138.885 303.6 140.619 304.267 140.619C305.067 140.619 305.6 138.485 305.6 135.952C305.6 133.419 306.267 131.285 306.933 131.285C307.733 131.285 308.667 131.285 309.2 131.285C309.733 131.285 310.4 133.152 310.667 135.552C311.2 140.885 311.867 141.552 313.733 139.685C315.333 138.085 314.267 128.752 312.533 128.485C312 128.352 307.6 128.219 302.667 127.952L293.6 127.685V134.219Z" fill="#DFDADA"/>
<path d="M319.333 128.219C316.533 129.285 317.333 131.685 320.267 130.885C321.733 130.485 323.2 130.752 323.6 131.285C324 131.952 322.933 132.619 321.333 132.885C319.333 133.152 318.133 134.352 317.867 136.219C317.6 137.952 317.867 139.419 318.533 139.419C319.067 139.552 321.6 139.819 324 140.085C328.133 140.352 328.267 140.219 328.267 135.419C328.267 128.485 324.933 125.819 319.333 128.219ZM324.933 136.619C324.533 137.285 323.2 137.952 322.133 137.952C321.067 137.952 320.267 137.285 320.267 136.619C320.267 135.819 321.467 135.285 323.067 135.285C324.533 135.285 325.333 135.819 324.933 136.619Z" fill="#DFDADA"/>
<path d="M332.267 134.085C332.267 137.685 332.933 140.619 333.6 140.619C334.4 140.619 334.933 138.619 334.933 136.085C334.933 131.285 337.467 129.019 340.133 131.685C340.933 132.485 341.6 134.885 341.6 136.885C341.6 138.885 342.267 140.619 342.933 140.619C343.733 140.619 344.267 138.219 344.267 135.285C344.267 129.552 342.133 127.552 336 127.552C332.4 127.552 332.267 127.952 332.267 134.085Z" fill="#DFDADA"/>
<path d="M365.067 129.819C361.733 133.552 362.8 138.352 367.467 139.952C370.667 141.019 371.6 140.752 373.733 138.085C376.933 134.219 376.933 133.285 373.6 129.952C370.267 126.619 368 126.619 365.067 129.819ZM372 133.152C372.8 137.019 370 138.885 367.333 136.352C365.467 134.485 365.467 133.685 366.933 131.952C369.067 129.419 371.467 129.952 372 133.152Z" fill="#DFDADA"/>
<path d="M385.867 128.885C383.333 131.419 384 133.819 387.6 134.752C389.467 135.152 390.933 136.219 390.933 136.885C390.933 137.685 389.467 137.819 387.467 137.419C384.933 136.752 384.133 137.019 384.533 138.219C385.333 140.619 390.667 141.152 393.067 139.285C396 136.752 395.333 134.085 391.6 133.152C389.733 132.752 388.267 131.685 388.267 131.019C388.267 130.219 389.2 130.085 390.4 130.485C393.333 131.552 395.733 129.952 393.467 128.485C390.8 126.885 387.733 127.019 385.867 128.885Z" fill="#DFDADA"/>
<path d="M398.4 129.819C392.933 135.952 400.8 144.085 406.933 138.619C410.4 135.419 410.267 131.952 406.667 129.419C402.8 126.619 401.2 126.752 398.4 129.819ZM405.333 133.152C406.133 137.019 403.333 138.885 400.667 136.352C398.8 134.485 398.8 133.685 400.267 131.952C402.4 129.419 404.8 129.952 405.333 133.152Z" fill="#DFDADA"/>
<path d="M418.933 132.485C418.933 138.619 420.8 140.485 426.667 140.352C430.933 140.219 430.933 140.085 430.933 133.685C430.933 130.219 430.4 127.285 429.6 127.285C428.933 127.285 428.267 129.019 428.267 131.152C428.267 135.819 424.667 139.419 422.8 136.485C422.133 135.419 421.6 133.019 421.6 130.885C421.6 128.885 421.067 127.285 420.267 127.285C419.6 127.285 418.933 129.552 418.933 132.485Z" fill="#DFDADA"/>
<path d="M436.267 129.952C432.8 133.419 432.933 135.552 436.933 139.285C439.467 141.685 439.867 142.752 438.667 143.552C437.467 144.485 437.6 144.619 439.333 144.352C440.667 144.085 441.6 143.552 441.333 143.152C441.067 142.619 442.133 140.885 443.6 139.285L446.133 136.485L442.267 136.885C438.933 137.152 438.133 136.752 437.867 134.219C437.467 131.285 438.4 130.752 443.6 131.285C445.733 131.552 445.867 131.285 444.4 129.419C442 126.619 439.467 126.752 436.267 129.952Z" fill="#DFDADA"/>
<path d="M449.867 129.419C448.267 130.485 446.933 132.485 446.933 133.819C446.933 136.619 450.933 140.619 453.867 140.619C456.4 140.619 460.267 136.352 460.267 133.552C460.267 131.685 455.6 127.285 453.6 127.285C453.2 127.285 451.467 128.219 449.867 129.419ZM456.133 132.485C457.2 134.352 457.067 135.419 455.6 136.619C453.333 138.485 450.933 137.285 450.933 134.085C450.933 129.552 454.133 128.485 456.133 132.485Z" fill="#DFDADA"/>
<path d="M464.267 129.952C461.067 133.152 461.067 133.819 463.733 137.685C466 141.019 472.267 141.419 473.333 138.219C473.733 137.019 472.933 136.752 470.533 137.285C468.667 137.819 466.8 137.552 466.4 136.752C465.733 135.819 467.067 135.285 470.133 135.285C472.8 135.285 474.933 134.619 474.933 133.952C474.933 132.219 470 127.285 468.267 127.285C467.6 127.285 465.733 128.485 464.267 129.952ZM470.267 131.285C470.667 132.085 469.733 132.619 468 132.619C465.6 132.619 465.333 132.352 466.933 131.285C469.467 129.685 469.333 129.685 470.267 131.285Z" fill="#DFDADA"/>
<path d="M477.867 128.885C475.333 131.419 476 133.819 479.6 134.752C481.467 135.152 482.933 136.219 482.933 136.885C482.933 137.685 481.467 137.819 479.467 137.419C476.933 136.752 476.133 137.019 476.533 138.219C477.467 140.752 483.6 141.019 485.6 138.752C487.733 136.085 485.333 132.619 481.333 132.619C479.867 132.619 479.2 131.952 479.6 131.285C480.133 130.485 481.733 130.219 483.2 130.752C485.2 131.285 485.733 131.019 485.333 129.819C484.533 127.285 480 126.752 477.867 128.885Z" fill="#DFDADA"/>
<path d="M253.6 139.952C253.6 143.685 255.6 144.485 256.8 141.152C258.133 137.819 257.733 136.619 255.6 136.619C254.4 136.619 253.6 137.819 253.6 139.952Z" fill="#DFDADA"/>
<path d="M488.267 138.619C488.267 139.819 488.933 140.619 489.733 140.352C490.533 140.085 491.2 139.285 491.2 138.619C491.2 137.952 490.533 137.152 489.733 136.885C488.933 136.619 488.267 137.419 488.267 138.619Z" fill="#DFDADA"/>
</svg>
