<?xml version="1.0" encoding="UTF-8"?>
<svg viewBox="0 0 504 109" xmlns="http://www.w3.org/2000/svg">
<path d="m8.5333 0.35211-8.5333 0.4 0.8 6.2667c0.4 3.4666 2.2667 25.733 4.1333 49.6 1.8667 23.867 3.7333 44.133 4 44.933 0.8 2.4 19.867 2.4 21.733 0 1.0666-1.333 32.133-95.2 32.667-98.933 0.1334-0.8-4.2666-1.6-10-2-5.6-0.4-10-0.53333-9.7333-0.26667 0.6667 0.66666-15.333 62.133-16.4 63.2-0.5333 0.5333-1.7333 0.4-2.8-0.1333-1.4667-0.9334-2-7.8667-2.5333-31.867-0.8-34.8 0.5333-31.867-13.333-31.2z" fill="#313131"/>
<path d="m68.267 0.61876c-1.0667 0.66667-9.4667 24.133-18.667 52.267l-16.8 51.067-12.267 0.4c-9.0666 0.267-12.267 0.8-11.867 2 0.26666 1.067 4.5333 1.6 13.733 1.6h13.2l17.6-53.333c9.7333-29.333 17.6-53.733 17.333-54.267-0.1333-0.53333-1.2-0.4-2.2666 0.26667z" fill="#EBBA60"/>
<path d="m90.933 0.35209-6 0.4-16.4 50.267c-9.0666 27.6-16.4 50.8-16.267 51.333 0 0.533 4 0.933 9.0666 0.667l8.9334-0.4 2.4-7.7336 2.4-7.6h10.533c11.733 0 12 0.2667 12 10.133v5.8662h9.333c9.334 0 9.334 0 9.334-3.7329 0-2-1.867-24.267-4-49.6-2.134-25.333-4-46.667-4-47.467 0-1.7333-8.134-2.8-17.334-2.1333zm4.6667 52.933v18.667l-7.0667 0.4c-5.2 0.2667-7.2-0.1333-7.7333-1.6-0.6667-1.6 7.7333-32.667 9.7333-35.867 0.4-0.5333 1.6-0.9333 2.8-0.6666 2 0.4 2.2667 2.8 2.2667 19.067z" fill="#313131"/>
<path d="m92.133 37.285c-0.9333 1.3334-9.2 30-9.2 31.733 0 0.5333 0.8 0.9333 1.8667 0.9333 2.2667 0 9.0667-23.733 8.5333-29.733-0.2666-2.2667-0.8-3.7334-1.2-2.9334z" fill="#EBBA60"/>
<path d="m146.67 0.35209c-2.934 0.4-3.734 1.2-4.4 4.6667-1.334 8.2666-11.334 92.267-11.334 95.2v3.066h25.2c14 0 25.6-0.4 25.867-1.066 0.4-0.534 1.067-4.4002 1.6-8.6669l0.933-7.6h-15.466c-11.734 0-15.734-0.4-16.267-1.7333-0.4-1.0667 1.467-19.067 4.133-40.133 2.534-21.067 4.667-39.333 4.667-40.667 0-2-1.2-2.6667-5.6-2.9333-3.2-0.26667-7.333-0.4-9.333-0.13333z" fill="#313131"/>
<path d="m224.13 1.8188c-16.8 6-19.866 12.4-24.533 50.533-3.333 26.8-3.333 28.8-1.333 35.6 2.933 10.267 8.533 14.4 20.666 15.067 10.4 0.666 16.267-0.934 23.734-6.4002 8.4-6 10.666-12.533 14.4-40.8 1.733-13.733 3.2-28.133 3.2-31.867 0-9.0667-4.4-17.6-10.934-20.933-6.533-3.4667-17.6-4-25.2-1.2zm12.667 15.6c4.8 1.8666 4.933 5.0666 1.467 33.2-1.867 15.467-4.267 29.2-5.334 31.467-4.133 7.7334-15.6 6.1334-16.4-2.5333-0.4-3.8667 4.134-45.333 5.867-53.733 1.467-7.2 7.867-10.933 14.4-8.4z" fill="#313131"/>
<path d="m229.87 19.419c-4.267 1.6-5.2 4.8-8.267 29.333-3.467 28.267-3.467 35.867 0.133 35.867 0.534 0 0.8-0.8 0.4-1.7334-0.266-0.9333 0.8-14 2.667-28.8 3.467-28.267 4.533-31.467 10.667-32.4 2.8-0.4 2.8-0.5333 0.133-2-1.6-0.8-3.867-0.9333-5.733-0.2666z" fill="#EBBA60"/>
<path d="m280.53 0.7521c-1.866 0.66666-3.2 8.2667-8.4 50.667-3.466 27.467-5.733 50.4-5.2 50.933 0.534 0.533 4.8 0.933 9.467 0.667l8.533-0.4 1.467-10.667c0.8-5.8667 2-14.667 2.533-19.733 0.934-9.6 3.067-13.067 7.334-12 1.466 0.4 2.666 0.8 2.666 0.9333 0 0 1.2 9.4667 2.667 20.8s2.667 20.8 2.667 21.067c0 0.266 4.4 0.266 9.733 0 9.333-0.4 9.6-0.534 9.2-3.7336-0.267-1.8666-1.733-11.867-3.467-22.4l-3.066-19.067 5.733-6c9.333-9.6 12.667-26.933 7.333-38.533-3.066-6.8-6.133-9.3333-13.333-11.333-6.267-1.6-32.133-2.5333-35.867-1.2zm29.6 19.867c2.934 2.9333 3.334 11.2 0.8 17.333-2.666 6.5333-13.6 10.533-17.066 6.2667-1.734-2 0.666-23.333 2.8-26 1.866-2.4 10.133-0.9334 13.466 2.4z" fill="#313131"/>
<path d="m298.27 20.485c-0.534 1.0667-3.067 17.733-3.334 21.733 0 0.6666 0.8 1.0666 1.867 1.0666 1.733 0 3.467-7.8666 3.467-16.133 0-3.4667 0.4-3.8667 4.4-3.8667 4-0.1333 4.133-0.1333 1.733-2-2.933-2.2666-6.933-2.6666-8.133-0.8z" fill="#EBBA60"/>
<path d="m356.67 0.35209c-3.867 0.26667-7.067 0.93334-7.067 1.7333 0 0.66666-2.667 23.2-6 50s-6 49.2-6 50c0 0.667 4.133 1.2 9.333 1.2 8.534 0 9.334-0.266 9.867-3.066 0.8-3.4669 6.267-44.667 6.267-47.6 0.133-1.0667 1.2-11.6 2.666-23.333 1.467-11.733 2.667-22.8 2.934-24.533 0.4-3.8667-2.534-4.9333-12-4.4z" fill="#313131"/>
<path d="m386 0.35209c-3.467 0.4-4.4 1.0667-4.4 3.3333 0 1.6-0.4 5.2-0.8 7.8667l-0.933 5.0667h12.8c14 0 16.933 0.6666 16.933 3.6 0 1.2-4 8.4-8.8 16.267-10.4 16.933-9.067 14.8-20 32.667-8.267 13.733-10.933 21.467-11.2 32.4 0 1.333 5.867 1.733 25.2 1.733 14 0 25.6-0.4 25.867-1.066 0.4-0.534 1.066-4.4002 1.6-8.6669l0.933-7.6h-14.667c-8.533 0-15.066-0.5333-15.6-1.3333-0.533-0.8 7.467-15.067 17.734-31.733 22.533-36.8 21.066-33.867 22.133-44l0.933-8.2667h-7.733c-4.267-0.13333-14-0.26667-21.733-0.4-7.734-0.13333-16-0.13333-18.267 0.13333z" fill="#313131"/>
<path d="m458.67 0.35209c-8.134 0.26667-11.734 0.93334-11.734 2 0 0.93334-0.666 5.4667-1.333 10.267-1.467 10.133-1.467 10.8-6.667 53.333-2.133 18-4 33.733-4 34.933 0 2.267 2.134 2.4 25.334 2.4 19.2 0 25.6-0.4 26-1.733 0.266-0.8 0.8-4.6666 1.2-8.5332l0.933-6.9334-31.467-0.8 0.4-9.3333c0.8-14.267 1.867-15.867 11.867-16.4 9.067-0.4 9.2-0.6667 10-10.267l0.4-5.3333-17.333-1.3333 0.4-10c0.666-15.467 1.333-16 18.933-16 8 0 14.8-0.4 15.067-1.0667 0.4-0.5333 0.8-4.1333 1.066-8l0.534-7.0667-14-0.26667c-7.734-0.13333-19.2-0.13333-25.6 0.13333z" fill="#313131"/>
<path d="m24.4 26.885c0.1333 14.533 0.5333 28.133 1.0667 30.4l0.9333 4 0.9333-5.3333c1.8667-10.667 0.2667-55.333-2-55.333-0.5333 0-0.9333 11.867-0.9333 26.267z" fill="#EBBA60"/>
<path d="m110.93 1.5521c0 0.66667 1.867 22.4 4 48.4 2.134 26 4 48.933 4 50.933 0 3.6 0 3.6-10.933 4-14.267 0.534-14.4 2.934-0.4 3.467 15.733 0.533 16.533 0.267 15.2-6.667-0.667-3.1996-2.667-24.933-4.533-48.4-3.867-47.733-4.4-52.667-6.134-52.667-0.666 0-1.2 0.4-1.2 0.93333z" fill="#EBBA60"/>
<path d="m164.27 1.9521c0 0.8-2.134 18.533-4.667 39.467-5.333 43.333-5.2 41.867-2.933 41.867 1.2 0 2.933-10.667 6.133-37.733 2.4-20.667 4.8-39.2 5.067-41.333 0.533-2.6667 0.266-3.6-1.467-3.6-1.2 0-2.133 0.66667-2.133 1.3333z" fill="#EBBA60"/>
<path d="m365.73 49.019c-3.2 26.533-6.133 49.867-6.4 51.866-0.666 3.6-0.933 3.6-11.6 4-14.933 0.534-13.866 2.934 1.6 3.467 8.267 0.267 12.267-0.133 12.267-1.067 0-0.8 0.533-1.2 1.2-0.8 0.667 0.534 0.933-0.266 0.667-1.466-0.4-1.334 2.133-24.534 5.466-51.467 3.334-27.067 6-50 6-51.067s-0.8-1.8667-1.6-1.8667c-1.2 0-3.333 13.733-7.6 48.4z" fill="#EBBA60"/>
<path d="m435.73 4.8854c-0.4 2.4-0.933 6.6667-1.333 9.4667-0.533 4.2667-18.8 36-37.867 65.867-1.733 2.8-1.733 3.0666 0.667 3.0666 2 0 7.2-7.3333 21.067-30.133 18.133-29.6 19.733-33.333 20.933-46.4 0.533-6.5333-2.533-8.2667-3.467-1.8667z" fill="#EBBA60"/>
<path d="m501.07 3.5521c-0.4 1.7333-1.067 5.8667-1.467 9.3333l-0.8 6.4h-14.933c-8.267 0-15.6 0.5334-16.4 1.0667-0.934 0.5333-2 5.3333-2.534 10.533-0.8 8.4-0.666 9.7334 1.2 9.7334 1.6 0 2.134-1.3334 2.134-5.8667 0-3.3333 0.533-6.2667 1.333-6.8 0.667-0.4 0.933-1.6 0.4-2.6667-0.533-1.7333 1.733-2 15.333-2 12.4 0 16.134-0.4 16.667-1.8666 1.733-4.4 2.533-20.8 1.067-20.8-0.8 0-1.734 1.3333-2 2.9333z" fill="#EBBA60"/>
<path d="m260.27 10.619c3.466 6.8 3.333 11.733-0.667 43.6-2.4 18.4-4.267 28.4-6.133 32.4-3.6 7.4666-12.8 16-19.334 17.866-6.8 1.867-17.733 1.867-23.066 0-5.867-2-6.667-0.533-1.334 2.134 6.667 3.466 23.467 3.066 31.2-0.667 7.467-3.6 14.667-11.867 17.2-19.867 1.2-3.3333 3.6-18.267 5.467-33.067 3.733-29.867 3.333-37.333-2.8-44.133l-3.2-3.6 2.667 5.3334z" fill="#EBBA60"/>
<path d="m333.2 14.219c4.267 12.133-0.4 31.067-9.867 40.133l-3.866 3.6 2.933 19.067c1.733 10.4 3.467 20.933 3.867 23.2l0.8 4.4h-11.467c-9.2 0-11.333 0.4-11.333 2s2.266 2 12.666 2c11.734 0 12.667-0.267 12.667-2.667 0-1.333-1.467-11.867-3.333-23.333l-3.334-20.8 5.2-6.1334c6.4-7.2 10-17.067 10-27.067-0.133-8.1334-2.4-16.267-5.066-18.667-1.467-1.0667-1.467-0.26666 0.133 4.2667z" fill="#EBBA60"/>
<path d="m379.87 20.085c-2.267 2.2667 1.466 3.2 12.4 3.2 12.266 0 16.533-0.8 15.2-2.8-0.8-1.3333-26.267-1.7333-27.6-0.4z" fill="#EBBA60"/>
<path d="m482.27 44.885c-0.267 0.9334-0.8 5.2-1.334 9.3334l-0.8 7.7333h-8.4c-5.2 0-8.933 0.6667-9.866 1.6-0.667 0.9333-1.734 5.7333-2.267 10.667-0.8 7.7333-0.533 9.0666 1.2 9.0666 1.467 0 2.133-1.2 2.133-3.7333 0-2 0.4-5.8667 0.8-8.6667l0.934-4.9333h9.066c10.267 0 9.867 0.5333 11.334-13.733 0.533-6.4 0.4-8.9334-0.667-8.9334-0.8 0-1.733 0.8-2.133 1.6z" fill="#EBBA60"/>
<path d="m292.8 63.819c-0.4 0.9333-1.733 10.4-2.933 20.933l-2.4 19.2-10.934 0.4c-8.533 0.267-10.933 0.8-10.933 2.267 0 1.6 2.4 2 11.867 2 6.666 0 12.266-0.534 12.666-1.2 0.4-0.534 1.6-8.8002 2.8-18.267 1.067-9.4667 2.4-19.467 2.8-22.267 0.8-4.8-1.333-7.2-2.933-3.0666z" fill="#EBBA60"/>
<path d="m186.27 92.219c-1.734 13.733 1.466 12.266-28.667 12.666-16.667 0.267-26.667 0.934-26.667 1.734s10.267 1.333 28.267 1.333h28.4l0.8-5.333c1.733-10 1.867-15.734 0.267-16.267-0.934-0.4-1.867 1.8667-2.4 5.8667z" fill="#EBBA60"/>
<path d="m424.93 93.552c-0.533 4.2667-1.066 8.5329-1.333 9.3329-0.4 1.334-7.067 1.734-27.333 1.734-22.934 0-26.667 0.266-26.667 2 0 1.733 3.733 2 28.267 1.733l28.266-0.4 0.934-4.667c1.866-8.6662 2-16.4 0.266-16.933-0.933-0.4-1.866 2.1333-2.4 7.2z" fill="#EBBA60"/>
<path d="m490.4 90.219c-0.4 2.4-1.067 6.6666-1.467 9.3333l-0.8 5.0669-26.533 0.266c-16.4 0.267-26.8 0.934-27.067 1.734-0.266 1.6 55.067 2.533 56.534 1.066 1.733-1.866 3.066-21.733 1.466-21.733-0.8 0-1.733 2-2.133 4.2667z" fill="#EBBA60"/>
<path d="m74.4 97.285-2.2667 7.1996-10.133 0.4c-6.8 0.267-10.4 0.934-10.8 2.134-0.4 1.333 2.2667 1.6 11.867 1.333l12.4-0.4 2.2666-7.333 2.1334-7.3336 7.6-0.4c10.133-0.5333 8.2666-2.9333-2.4-2.9333h-8.2667l-2.4 7.3333z" fill="#EBBA60"/>
</svg>
